<?xml version="1.0" encoding="UTF-8" standalone="no"?>
<svg
   width="64"
   height="64"
   viewBox="0 0 64 64"
   version="1.1"
   id="svg7"
   xml:space="preserve"
   xmlns="http://www.w3.org/2000/svg"
   xmlns:svg="http://www.w3.org/2000/svg"><defs
     id="defs2"><filter
       id="a"
       x="28.335"
       y="27"
       width="25.649"
       height="30.518"
       filterUnits="userSpaceOnUse"><feOffset
         dy="3"
         input="SourceAlpha"
         id="feOffset1" /><feGaussianBlur
         stdDeviation="3"
         result="b"
         id="feGaussianBlur1" /><feFlood
         flood-opacity="0.161"
         id="feFlood1" /><feComposite
         operator="in"
         in2="b"
         id="feComposite1"
         result="result1" /><feComposite
         in="SourceGraphic"
         id="feComposite2"
         in2="result1" /></filter><clipPath
       id="d"><rect
         width="64"
         height="64"
         id="rect2" /></clipPath></defs><style
     type="text/css"
     id="style1">
	.st0{fill:#0078D4;}
</style><g
     id="g3"
     transform="matrix(0.31521582,0,0,0.31337545,-93.593737,-40.077932)"><g
       id="g2"
       transform="matrix(0.57729103,0,0,0.57729103,224.0954,107.50388)"
       style="mix-blend-mode:normal;fill:none">
	<path
   class="st0"
   d="m 136.2,126.4 v 80.1 H 296.3 V 46.4 H 136.2 Z m 171.5,0 v 80.1 H 467.8 V 46.4 H 307.7 Z M 136.2,298 v 80 H 296.3 V 217.9 H 136.2 Z m 171.5,0 v 80 H 467.8 V 217.9 H 307.7 Z"
   id="path1"
   style="fill:#abae87;fill-opacity:1" />
</g><g
       id="text4"
       style="font-weight:bold;font-size:40.8102px;font-family:Calibri;-inkscape-font-specification:'Calibri, Bold';fill:#4a3657;fill-opacity:1;stroke:#144456;stroke-width:0.850212;stroke-linecap:round"
       aria-label="EU
IS"
       transform="matrix(3.7692277,0,0,3.7692277,277.82196,109.38975)"><path
         d="m 53.615342,21.468508 c 0,1.268149 -0.186493,2.403089 -0.559478,3.40482 -0.372985,1.001732 -0.921806,1.848941 -1.646462,2.541627 -0.724657,0.692687 -1.619821,1.220194 -2.685492,1.582523 -1.065672,0.362328 -2.291194,0.543492 -3.676567,0.543492 -1.300119,0 -2.46703,-0.159851 -3.500731,-0.479552 -1.033701,-0.330359 -1.907551,-0.825896 -2.621552,-1.486612 -0.714,-0.660717 -1.262821,-1.481284 -1.646463,-2.461701 C 36.905612,24.12203 36.71912,22.965777 36.71912,21.644344 V 9.0640922 c 0,-0.1065667 0.03197,-0.202477 0.09591,-0.287731 0.06394,-0.085253 0.175835,-0.154522 0.335686,-0.207806 0.170508,-0.05328 0.388971,-0.095907 0.655389,-0.12788 0.266417,-0.031967 0.607432,-0.04795 1.023044,-0.04795 0.404955,0 0.740642,0.015983 1.007059,0.04795 0.266418,0.031967 0.479552,0.074593 0.639403,0.12788 0.159851,0.05328 0.271746,0.1225487 0.335687,0.207806 0.0746,0.085254 0.111895,0.1811643 0.111895,0.287731 V 21.276688 c 0,0.820567 0.101239,1.534566 0.303716,2.141999 0.202478,0.596775 0.49021,1.092313 0.863195,1.486612 0.383641,0.394299 0.836552,0.692687 1.358731,0.895164 0.532835,0.191821 1.124283,0.287731 1.774343,0.287731 0.660716,0 1.252163,-0.101239 1.774342,-0.303716 0.522179,-0.202478 0.964433,-0.495538 1.326762,-0.879179 0.362329,-0.394299 0.639403,-0.873851 0.831223,-1.438656 0.202478,-0.575463 0.303717,-1.225523 0.303717,-1.950179 V 9.0640922 c 0,-0.1065667 0.03197,-0.202477 0.09591,-0.287731 0.06394,-0.085253 0.175836,-0.154522 0.335687,-0.207806 0.159851,-0.05328 0.372985,-0.095907 0.639403,-0.12788 0.277074,-0.031967 0.618089,-0.04795 1.023044,-0.04795 0.404955,0 0.735314,0.015983 0.991075,0.04795 0.266418,0.031967 0.479552,0.074593 0.639403,0.12788 0.15985,0.05328 0.271745,0.1225487 0.335686,0.207806 0.06394,0.085254 0.09591,0.1811643 0.09591,0.287731 z"
         id="path5"
         style="fill:#4a3657;fill-opacity:1;stroke:#2a1e32;stroke-width:0.798;stroke-dasharray:none;stroke-opacity:1" /><path
         d="m 27.248567,27.797978 c 0,0.313852 -0.02153,0.579002 -0.06461,0.795452 -0.02872,0.205626 -0.07897,0.373375 -0.15077,0.503244 -0.07179,0.12987 -0.165122,0.227272 -0.279998,0.292205 -0.100517,0.05411 -0.215385,0.08116 -0.344616,0.08116 H 12.40858 c -0.473844,0 -0.875895,-0.102815 -1.206152,-0.308442 -0.315897,-0.216446 -0.473847,-0.562763 -0.473847,-1.038951 V 9.8110515 c 0,-0.4761871 0.15795,-0.8170952 0.473847,-1.0227224 0.330257,-0.2164495 0.732308,-0.3246733 1.206152,-0.3246733 h 13.913834 c 0.129231,0 0.244101,0.027053 0.344614,0.081159 0.100517,0.054106 0.186666,0.1515108 0.258462,0.2922064 0.07178,0.1298693 0.122048,0.3030277 0.150769,0.5194782 0.04308,0.2056272 0.06461,0.4707764 0.06461,0.7954496 0,0.30303 -0.02153,0.562768 -0.06461,0.779219 -0.02872,0.205626 -0.07897,0.373373 -0.150769,0.503243 -0.07179,0.129869 -0.157943,0.227271 -0.258462,0.292206 -0.100517,0.05411 -0.215383,0.08116 -0.344614,0.08116 h -9.950761 v 5.129847 h 8.421532 c 0.129229,0 0.244103,0.03246 0.344616,0.0974 0.114866,0.05412 0.208204,0.146107 0.279999,0.275974 0.0718,0.119047 0.122049,0.286796 0.150769,0.503244 0.04308,0.205627 0.06461,0.459955 0.06461,0.762984 0,0.313851 -0.02153,0.573589 -0.06461,0.779218 -0.02872,0.205626 -0.07897,0.373374 -0.150769,0.503243 -0.07178,0.119048 -0.165123,0.205628 -0.279999,0.259739 -0.100518,0.05411 -0.215385,0.08116 -0.344616,0.08116 h -8.421532 v 5.925296 h 10.036914 c 0.12923,0 0.244103,0.03246 0.344616,0.0974 0.114867,0.05411 0.208205,0.146099 0.28,0.275972 0.0718,0.12987 0.122048,0.303029 0.150768,0.519479 0.04308,0.205626 0.06461,0.465364 0.06461,0.779216 z"
         style="fill:#4a3657;fill-opacity:1;stroke:#2a1e32;stroke-width:0.798;stroke-dasharray:none;stroke-opacity:1"
         id="path1-6" /><path
         d="m 53.520966,49.008217 c 0,1.069147 -0.250448,2.007271 -0.751343,2.814373 -0.500895,0.807101 -1.179741,1.483182 -2.036535,2.028237 -0.856794,0.534573 -1.858587,0.938124 -3.005373,1.210652 -1.146787,0.272528 -2.372662,0.408792 -3.677627,0.408792 -0.883158,0 -1.706998,-0.05765 -2.471522,-0.172952 C 40.827221,55.18202 40.161557,55.045755 39.581574,54.888528 39.00159,54.720819 38.513876,54.547869 38.118433,54.369677 37.73617,54.191486 37.459359,54.034258 37.288,53.897995 c -0.171358,-0.136264 -0.296582,-0.330178 -0.375671,-0.581742 -0.0659,-0.262046 -0.09886,-0.634151 -0.09886,-1.116317 0,-0.324936 0.01318,-0.597463 0.03954,-0.817582 0.02636,-0.220119 0.0659,-0.398311 0.118632,-0.534574 0.0659,-0.136264 0.144992,-0.230601 0.237267,-0.28301 0.105447,-0.0629 0.224084,-0.09433 0.355898,-0.09433 0.184541,0 0.44158,0.08909 0.771116,0.267287 0.342719,0.167708 0.777706,0.356382 1.304965,0.566019 0.527258,0.209636 1.153377,0.403551 1.878357,0.581743 0.738161,0.167709 1.588366,0.251563 2.550613,0.251563 0.632709,0 1.199511,-0.05764 1.700407,-0.172949 0.500896,-0.125782 0.922703,-0.298733 1.26542,-0.518852 0.355899,-0.220118 0.626119,-0.492646 0.810661,-0.817583 0.184539,-0.324937 0.276809,-0.686561 0.276809,-1.08487 0,-0.461201 -0.158178,-0.85427 -0.474533,-1.179207 -0.316354,-0.335419 -0.731569,-0.62891 -1.245645,-0.880474 -0.500895,-0.262047 -1.07429,-0.503129 -1.720181,-0.723248 -0.645884,-0.230603 -1.311548,-0.471686 -1.996984,-0.72325 -0.685436,-0.251564 -1.3511,-0.534575 -1.996991,-0.849029 -0.645892,-0.324937 -1.225877,-0.707524 -1.739952,-1.147761 -0.500896,-0.450719 -0.909521,-0.980052 -1.225876,-1.587999 -0.316354,-0.607946 -0.474533,-1.336435 -0.474533,-2.185462 0,-0.974812 0.224085,-1.829082 0.672254,-2.562811 0.461351,-0.74421 1.074289,-1.357397 1.838813,-1.839563 0.777707,-0.492646 1.687228,-0.859509 2.728563,-1.100592 1.054516,-0.241083 2.16835,-0.361623 3.3415,-0.361623 0.606346,0 1.212693,0.03669 1.819039,0.11006 0.606348,0.07338 1.173151,0.172949 1.70041,0.29873 0.527258,0.125783 0.995199,0.267288 1.403825,0.424515 0.408625,0.157228 0.678846,0.288251 0.81066,0.39307 0.131815,0.104817 0.217493,0.193913 0.257039,0.267285 0.05273,0.07338 0.09228,0.172952 0.118632,0.298734 0.03954,0.1153 0.0659,0.267287 0.0791,0.45596 0.01318,0.178192 0.01978,0.403551 0.01978,0.676078 0,0.303974 -0.01318,0.560778 -0.03954,0.770416 -0.01318,0.209636 -0.04613,0.382587 -0.09886,0.518851 -0.03954,0.136263 -0.105447,0.23584 -0.197721,0.298731 -0.07909,0.0629 -0.191131,0.09433 -0.336127,0.09433 -0.144996,0 -0.375672,-0.07338 -0.692027,-0.22012 -0.316355,-0.146746 -0.705208,-0.303973 -1.166558,-0.471681 -0.461351,-0.178192 -0.995201,-0.33542 -1.601548,-0.471684 -0.606347,-0.146746 -1.272011,-0.220118 -1.996991,-0.220118 -0.566803,0 -1.061107,0.05764 -1.482914,0.17295 -0.421806,0.104818 -0.777704,0.256806 -1.067697,0.45596 -0.276811,0.188673 -0.487715,0.419274 -0.632712,0.691802 -0.131813,0.272528 -0.19772,0.560778 -0.19772,0.864751 0,0.45072 0.151587,0.843788 0.45476,1.179206 0.316354,0.324937 0.731571,0.61843 1.245648,0.880475 0.527258,0.251564 1.120423,0.492647 1.779495,0.723247 0.659075,0.220118 1.331328,0.455961 2.016764,0.707525 0.685435,0.251563 1.35769,0.539813 2.016763,0.864752 0.659074,0.314454 1.245649,0.697041 1.759725,1.14776 0.514077,0.440237 0.929293,0.964329 1.245649,1.572276 0.316354,0.597465 0.474531,1.304989 0.474531,2.122572 z"
         style="fill:#4a3657;fill-opacity:1;stroke:#2a1e32;stroke-width:0.798;stroke-dasharray:none;stroke-opacity:1"
         id="path1-69" /></g><g
       id="g7"
       transform="matrix(3.7703924,0,0,3.7109617,277.84603,113.54457)"
       style="fill:#4a3657;fill-opacity:1"><path
         d="m 21.086344,54.451494 c 0,0.106567 -0.0373,0.202478 -0.111895,0.287731 -0.06394,0.08525 -0.175835,0.154523 -0.335686,0.207806 -0.159851,0.05328 -0.372986,0.09591 -0.639403,0.127881 -0.266418,0.03197 -0.607433,0.04795 -1.023045,0.04795 -0.404955,0 -0.745969,-0.01598 -1.023044,-0.04795 -0.266418,-0.03197 -0.479552,-0.07459 -0.639403,-0.127881 -0.159851,-0.05328 -0.277075,-0.122549 -0.351672,-0.207806 -0.06394,-0.08525 -0.09591,-0.181164 -0.09591,-0.287731 V 34.917736 c 0,-0.106567 0.03197,-0.202477 0.09591,-0.287731 0.0746,-0.08525 0.191821,-0.154523 0.351672,-0.207806 0.170507,-0.05328 0.38897,-0.09591 0.655387,-0.12788 0.266419,-0.03197 0.602105,-0.04795 1.00706,-0.04795 0.415612,0 0.756627,0.01598 1.023045,0.04795 0.266417,0.03197 0.479552,0.07459 0.639403,0.12788 0.15985,0.05328 0.271745,0.122549 0.335686,0.207806 0.0746,0.08525 0.111895,0.181164 0.111895,0.287731 z"
         id="path6"
         style="font-weight:bold;font-size:40.8102px;font-family:Calibri;-inkscape-font-specification:'Calibri, Bold';fill:#4a3657;fill-opacity:1;stroke:#2a1e32;stroke-width:0.804116;stroke-linecap:round;stroke-dasharray:none;stroke-opacity:1" /><path
         d="m 11.081503,37.31156 c -0.08614,0 -0.163668,-0.03094 -0.232579,-0.09284 -0.0689,-0.05306 -0.124905,-0.145892 -0.167976,-0.278521 -0.04305,-0.132629 -0.07752,-0.309469 -0.103368,-0.530515 -0.02584,-0.221049 -0.03876,-0.503992 -0.03876,-0.848826 0,-0.335992 0.01292,-0.618935 0.03876,-0.848826 0.02584,-0.221048 0.0603,-0.397887 0.103368,-0.530516 0.04307,-0.132628 0.09906,-0.229888 0.167976,-0.291782 0.0689,-0.05306 0.146439,-0.07958 0.232579,-0.07958 h 15.789614 c 0.08614,0 0.163667,0.02651 0.23258,0.07958 0.06891,0.0619 0.124905,0.159154 0.167976,0.291782 0.04306,0.141471 0.07752,0.322732 0.103367,0.543779 0.02584,0.221049 0.03877,0.499571 0.03877,0.835563 0,0.344834 -0.01293,0.627777 -0.03877,0.848826 -0.02584,0.221046 -0.0603,0.397886 -0.103367,0.530515 -0.04307,0.132628 -0.09906,0.225468 -0.167976,0.278521 -0.0689,0.0619 -0.146439,0.09284 -0.23258,0.09284 z"
         id="path6-4"
         style="font-weight:bold;font-size:40.8102px;font-family:Calibri;-inkscape-font-specification:'Calibri, Bold';fill:#4a3657;fill-opacity:1;stroke:#2a1e32;stroke-width:0.804116;stroke-linecap:round;stroke-dasharray:none;stroke-opacity:1" /><path
         d="m 11.081503,55.233804 c -0.08614,0 -0.163668,-0.03094 -0.232579,-0.09284 -0.0689,-0.05306 -0.124905,-0.145892 -0.167976,-0.278521 -0.04305,-0.132629 -0.07752,-0.309469 -0.103368,-0.530515 -0.02584,-0.221049 -0.03876,-0.503992 -0.03876,-0.848826 0,-0.335992 0.01292,-0.618935 0.03876,-0.848826 0.02584,-0.221048 0.0603,-0.397887 0.103368,-0.530516 0.04307,-0.132628 0.09906,-0.229888 0.167976,-0.291782 0.0689,-0.05306 0.146439,-0.07958 0.232579,-0.07958 h 15.789614 c 0.08614,0 0.163667,0.02651 0.23258,0.07958 0.06891,0.0619 0.124905,0.159154 0.167976,0.291782 0.04306,0.141471 0.07752,0.322732 0.103367,0.543779 0.02584,0.221049 0.03877,0.499571 0.03877,0.835563 0,0.344834 -0.01293,0.627777 -0.03877,0.848826 -0.02584,0.221046 -0.0603,0.397886 -0.103367,0.530515 -0.04307,0.132628 -0.09906,0.225468 -0.167976,0.278521 -0.0689,0.0619 -0.146439,0.09284 -0.23258,0.09284 z"
         id="path6-4-7"
         style="font-weight:bold;font-size:40.8102px;font-family:Calibri;-inkscape-font-specification:'Calibri, Bold';fill:#4a3657;fill-opacity:1;stroke:#2a1e32;stroke-width:0.804116;stroke-linecap:round;stroke-dasharray:none;stroke-opacity:1" /><rect
         style="fill:#4a3657;fill-opacity:1;stroke:none;stroke-width:112.504;stroke-linecap:round;stroke-dasharray:none;stroke-opacity:1"
         id="rect7-4"
         width="3.4238579"
         height="16.233299"
         x="17.264107"
         y="36.72039" /></g></g></svg>
