<?xml version="1.0" encoding="UTF-8"?>
<svg width="128" height="32" version="1.1" viewBox="0 0 128 32" xml:space="preserve" xmlns="http://www.w3.org/2000/svg"><style type="text/css">
	.st0{fill:#0078D4;}
</style><g transform="matrix(1.1881 0 0 1.1812 -6.0199 -6.3866)" style="fill:#4a3657;stroke-linecap:round;stroke-width:.85021;stroke:#144456"><path transform="matrix(.15316 0 0 .15316 -14.254 -.50033)" d="m136.2 126.4v80.1h160.1v-160.1h-160.1z" style="fill:#abae87;mix-blend-mode:normal"/><path d="m27.249 27.798c0 0.31385-0.02153 0.579-0.06461 0.79545-0.02872 0.20563-0.07897 0.37338-0.15077 0.50324-0.07179 0.12987-0.16512 0.22727-0.28 0.2922-0.10052 0.05411-0.21538 0.08116-0.34462 0.08116h-14c-0.47384 0-0.8759-0.10282-1.2062-0.30844-0.3159-0.21645-0.47385-0.56276-0.47385-1.039v-18.312c0-0.47619 0.15795-0.8171 0.47385-1.0227 0.33026-0.21645 0.73231-0.32467 1.2062-0.32467h13.914c0.12923 0 0.2441 0.027053 0.34461 0.081159 0.10052 0.054106 0.18667 0.15151 0.25846 0.29221 0.07178 0.12987 0.12205 0.30303 0.15077 0.51948 0.04308 0.20563 0.06461 0.47078 0.06461 0.79545 0 0.30303-0.02153 0.56277-0.06461 0.77922-0.02872 0.20563-0.07897 0.37337-0.15077 0.50324-0.07179 0.12987-0.15794 0.22727-0.25846 0.29221-0.10052 0.05411-0.21538 0.08116-0.34461 0.08116h-9.9508v5.1298h8.4215c0.12923 0 0.2441 0.03246 0.34462 0.0974 0.11487 0.05412 0.2082 0.14611 0.28 0.27597 0.0718 0.11905 0.12205 0.2868 0.15077 0.50324 0.04308 0.20563 0.06461 0.45996 0.06461 0.76298 0 0.31385-0.02153 0.57359-0.06461 0.77922-0.02872 0.20563-0.07897 0.37337-0.15077 0.50324-0.07178 0.11905-0.16512 0.20563-0.28 0.25974-0.10052 0.05411-0.21538 0.08116-0.34462 0.08116h-8.4215v5.9253h10.037c0.12923 0 0.2441 0.03246 0.34462 0.0974 0.11487 0.05411 0.2082 0.1461 0.28 0.27597 0.0718 0.12987 0.12205 0.30303 0.15077 0.51948 0.04308 0.20563 0.06461 0.46536 0.06461 0.77922z" style="fill:#4a3657;stroke-width:.798;stroke:#2a1e32"/></g><g transform="matrix(1.1881 0 0 1.1812 55.98 -37.209)" style="fill:#4a3657;stroke-linecap:round;stroke-width:.85021;stroke:#144456"><path transform="matrix(.15316 0 0 .15316 -14.254 -.50033)" d="m307.7 298v80h160.1v-160.1h-160.1z" style="fill:#abae87;mix-blend-mode:normal"/><path d="m53.521 49.008c0 1.0691-0.25045 2.0073-0.75134 2.8144-0.5009 0.8071-1.1797 1.4832-2.0365 2.0282-0.85679 0.53457-1.8586 0.93812-3.0054 1.2107-1.1468 0.27253-2.3727 0.40879-3.6776 0.40879-0.88316 0-1.707-0.05765-2.4715-0.17295-0.75134-0.1153-1.417-0.25156-1.997-0.40879-0.57998-0.16771-1.0677-0.34066-1.4631-0.51885-0.38226-0.17819-0.65907-0.33542-0.83043-0.47168-0.17136-0.13626-0.29658-0.33018-0.37567-0.58174-0.0659-0.26205-0.09886-0.63415-0.09886-1.1163 0-0.32494 0.01318-0.59746 0.03954-0.81758s0.0659-0.39831 0.11863-0.53457c0.0659-0.13626 0.14499-0.2306 0.23727-0.28301 0.10545-0.0629 0.22408-0.09433 0.3559-0.09433 0.18454 0 0.44158 0.08909 0.77112 0.26729 0.34272 0.16771 0.77771 0.35638 1.305 0.56602 0.52726 0.20964 1.1534 0.40355 1.8784 0.58174 0.73816 0.16771 1.5884 0.25156 2.5506 0.25156 0.63271 0 1.1995-0.05764 1.7004-0.17295 0.5009-0.12578 0.9227-0.29873 1.2654-0.51885 0.3559-0.22012 0.62612-0.49265 0.81066-0.81758 0.18454-0.32494 0.27681-0.68656 0.27681-1.0849 0-0.4612-0.15818-0.85427-0.47453-1.1792-0.31635-0.33542-0.73157-0.62891-1.2456-0.88047-0.5009-0.26205-1.0743-0.50313-1.7202-0.72325-0.64588-0.2306-1.3115-0.47169-1.997-0.72325s-1.3511-0.53458-1.997-0.84903c-0.64589-0.32494-1.2259-0.70752-1.74-1.1478-0.5009-0.45072-0.90952-0.98005-1.2259-1.588-0.31635-0.60795-0.47453-1.3364-0.47453-2.1855 0-0.97481 0.22408-1.8291 0.67225-2.5628 0.46135-0.74421 1.0743-1.3574 1.8388-1.8396 0.77771-0.49265 1.6872-0.85951 2.7286-1.1006 1.0545-0.24108 2.1684-0.36162 3.3415-0.36162 0.60635 0 1.2127 0.03669 1.819 0.11006 0.60635 0.07338 1.1732 0.17295 1.7004 0.29873 0.52726 0.12578 0.9952 0.26729 1.4038 0.42452 0.40862 0.15723 0.67885 0.28825 0.81066 0.39307 0.13182 0.10482 0.21749 0.19391 0.25704 0.26728 0.05273 0.07338 0.09228 0.17295 0.11863 0.29873 0.03954 0.1153 0.0659 0.26729 0.0791 0.45596 0.01318 0.17819 0.01978 0.40355 0.01978 0.67608 0 0.30397-0.01318 0.56078-0.03954 0.77042-0.01318 0.20964-0.04613 0.38259-0.09886 0.51885-0.03954 0.13626-0.10545 0.23584-0.19772 0.29873-0.07909 0.0629-0.19113 0.09433-0.33613 0.09433s-0.37567-0.07338-0.69203-0.22012c-0.31636-0.14675-0.70521-0.30397-1.1666-0.47168-0.46135-0.17819-0.9952-0.33542-1.6015-0.47168-0.60635-0.14675-1.272-0.22012-1.997-0.22012-0.5668 0-1.0611 0.05764-1.4829 0.17295-0.42181 0.10482-0.7777 0.25681-1.0677 0.45596-0.27681 0.18867-0.48772 0.41927-0.63271 0.6918-0.13181 0.27253-0.19772 0.56078-0.19772 0.86475 0 0.45072 0.15159 0.84379 0.45476 1.1792 0.31635 0.32494 0.73157 0.61843 1.2456 0.88048 0.52726 0.25156 1.1204 0.49265 1.7795 0.72325 0.65908 0.22012 1.3313 0.45596 2.0168 0.70752 0.68544 0.25156 1.3577 0.53981 2.0168 0.86475 0.65907 0.31445 1.2456 0.69704 1.7597 1.1478 0.51408 0.44024 0.92929 0.96433 1.2456 1.5723 0.31635 0.59746 0.47453 1.305 0.47453 2.1226z" style="fill:#4a3657;stroke-width:.798;stroke:#2a1e32"/></g><g transform="translate(62.139 -31.411)"><path transform="matrix(.18197 0 0 .18091 -22.955 -6.3889)" d="m136.2 298v80h160.1v-160.1h-160.1z" style="fill:#abae87;mix-blend-mode:normal"/><path transform="matrix(1.1885 0 0 1.1629 -6.0123 -4.4959)" d="m11.082 33.811c-0.08614 0-0.16446 0.025876-0.23336 0.078936-0.068916 0.061894-0.12455 0.1596-0.16762 0.29223-0.043068 0.13263-0.077693 0.30967-0.10353 0.53072-0.02584 0.22989-0.037797 0.51215-0.037797 0.84814 0 0.34483 0.011957 0.6271 0.037797 0.84814 0.025848 0.22104 0.060483 0.39809 0.10353 0.53072 0.043071 0.13263 0.098724 0.22574 0.16762 0.2788 0.068911 0.0619 0.14722 0.092372 0.23336 0.092372h5.7847v14.422h-5.7847c-0.08614 0-0.16446 0.025876-0.23336 0.078936-0.068916 0.061894-0.12455 0.1596-0.16762 0.29223-0.043068 0.13263-0.077693 0.30967-0.10353 0.53072-0.02584 0.22989-0.037797 0.51215-0.037797 0.84814 0 0.34483 0.011957 0.62878 0.037797 0.84982 0.025848 0.22105 0.060483 0.39809 0.10353 0.53072 0.043071 0.13263 0.098724 0.22406 0.16762 0.27712 0.068911 0.0619 0.14722 0.094052 0.23336 0.094052h15.79c0.086141 0 0.16282-0.032152 0.23172-0.094052 0.068916-0.053053 0.1262-0.14449 0.16927-0.27712 0.043067-0.13263 0.077692-0.30968 0.10353-0.53072 0.02584-0.22105 0.037797-0.50499 0.037797-0.84982 0-0.33599-0.011957-0.61366-0.037797-0.83471-0.025847-0.22105-0.060472-0.40268-0.10353-0.54416-0.043071-0.13263-0.10036-0.23033-0.16927-0.29223-0.068912-0.05307-0.14558-0.078936-0.23172-0.078936h-5.7847v-14.422h5.7847c0.086141 0 0.16282-0.030472 0.23172-0.092372 0.068916-0.053053 0.1262-0.14617 0.16927-0.2788 0.043067-0.13263 0.077692-0.30968 0.10353-0.53072 0.02584-0.22105 0.037797-0.50331 0.037797-0.84814 0-0.33599-0.011957-0.61366-0.037797-0.83471-0.025847-0.22105-0.060472-0.40268-0.10353-0.54416-0.043071-0.13263-0.10036-0.23033-0.16927-0.29223-0.068912-0.05307-0.14558-0.078936-0.23172-0.078936h-15.79z" style="fill:#4a3657;stroke-linecap:round;stroke-width:.80412;stroke:#2a1e32"/></g><g transform="matrix(1.1881 0 0 1.1812 -6.1586 -6.3866)" style="fill:#4a3657;stroke-linecap:round;stroke-width:.85021;stroke:#144456" aria-label="EU IS"><path transform="matrix(.15316 0 0 .15316 -14.254 -.50033)" d="m307.7 126.4v80.1h160.1v-160.1h-160.1z" style="fill:#abae87;mix-blend-mode:normal;stroke-linecap:round;stroke-width:.85021;stroke:#144456"/><path d="m53.615 21.469c0 1.2681-0.18649 2.4031-0.55948 3.4048-0.37298 1.0017-0.92181 1.8489-1.6465 2.5416-0.72466 0.69269-1.6198 1.2202-2.6855 1.5825-1.0657 0.36233-2.2912 0.54349-3.6766 0.54349-1.3001 0-2.467-0.15985-3.5007-0.47955-1.0337-0.33036-1.9076-0.8259-2.6216-1.4866-0.714-0.66072-1.2628-1.4813-1.6465-2.4617-0.37298-0.99108-0.55948-2.1473-0.55948-3.4688v-12.58c0-0.10657 0.03197-0.20248 0.09591-0.28773 0.06394-0.085253 0.17584-0.15452 0.33569-0.20781 0.17051-0.05328 0.38897-0.095907 0.65539-0.12788 0.26642-0.031967 0.60743-0.04795 1.023-0.04795 0.40496 0 0.74064 0.015983 1.0071 0.04795 0.26642 0.031967 0.47955 0.074593 0.6394 0.12788 0.15985 0.05328 0.27175 0.12255 0.33569 0.20781 0.0746 0.085254 0.1119 0.18116 0.1119 0.28773v12.213c0 0.82057 0.10124 1.5346 0.30372 2.142 0.20248 0.59678 0.49021 1.0923 0.8632 1.4866 0.38364 0.3943 0.83655 0.69269 1.3587 0.89516 0.53284 0.19182 1.1243 0.28773 1.7743 0.28773 0.66072 0 1.2522-0.10124 1.7743-0.30372 0.52218-0.20248 0.96443-0.49554 1.3268-0.87918 0.36233-0.3943 0.6394-0.87385 0.83122-1.4387 0.20248-0.57546 0.30372-1.2255 0.30372-1.9502v-12.452c0-0.10657 0.03197-0.20248 0.09591-0.28773 0.06394-0.085253 0.17584-0.15452 0.33569-0.20781 0.15985-0.05328 0.37298-0.095907 0.6394-0.12788 0.27707-0.031967 0.61809-0.04795 1.023-0.04795s0.73531 0.015983 0.99108 0.04795c0.26642 0.031967 0.47955 0.074593 0.6394 0.12788 0.15985 0.05328 0.27174 0.12255 0.33569 0.20781 0.06394 0.085254 0.09591 0.18116 0.09591 0.28773z" style="fill:#4a3657;stroke-width:.798;stroke:#2a1e32"/></g></svg>
